<?xml version="1.0" encoding="UTF-8" standalone="no"?>
<!-- Created with Inkscape (http://www.inkscape.org/) -->

<svg
   xmlns:dc="http://purl.org/dc/elements/1.1/"
   xmlns:cc="http://creativecommons.org/ns#"
   xmlns:rdf="http://www.w3.org/1999/02/22-rdf-syntax-ns#"
   xmlns:svg="http://www.w3.org/2000/svg"
   xmlns="http://www.w3.org/2000/svg"
   xmlns:sodipodi="http://sodipodi.sourceforge.net/DTD/sodipodi-0.dtd"
   xmlns:inkscape="http://www.inkscape.org/namespaces/inkscape"
   id="svg4986"
   version="1.1"
   inkscape:version="0.91 r13725"
   xml:space="preserve"
   width="454.94739"
   height="132.55138"
   viewBox="0 0 454.94739 132.55138"
   sodipodi:docname="Hailo_Logo_RGB.svg"><metadata
     id="metadata4992"><rdf:RDF><cc:Work
         rdf:about=""><dc:format>image/svg+xml</dc:format><dc:type
           rdf:resource="http://purl.org/dc/dcmitype/StillImage" /><dc:title></dc:title></cc:Work></rdf:RDF></metadata><defs
     id="defs4990"><clipPath
       clipPathUnits="userSpaceOnUse"
       id="clipPath5014"><path
         d="M 0,110 370,110 370,0 0,0 0,110 Z"
         id="path5016"
         inkscape:connector-curvature="0" /></clipPath></defs><sodipodi:namedview
     pagecolor="#ffffff"
     bordercolor="#666666"
     borderopacity="1"
     objecttolerance="10"
     gridtolerance="10"
     guidetolerance="10"
     inkscape:pageopacity="0"
     inkscape:pageshadow="2"
     inkscape:window-width="2048"
     inkscape:window-height="1100"
     id="namedview4988"
     showgrid="false"
     inkscape:zoom="2.9109866"
     inkscape:cx="216.90465"
     inkscape:cy="59.262279"
     inkscape:window-x="0"
     inkscape:window-y="0"
     inkscape:window-maximized="1"
     inkscape:current-layer="g4994"
     fit-margin-top="0"
     fit-margin-left="0"
     fit-margin-right="0"
     fit-margin-bottom="0" /><g
     id="g4994"
     inkscape:groupmode="layer"
     inkscape:label="Hailo_Logo_RGB"
     transform="matrix(1.25,0,0,-1.25,-5.127625,136.24475)"><g
       id="g4996"
       transform="translate(172.3149,50.2915)"><path
         d="M 0,0 -14.161,0 -40.557,47.98 -40.674,48.181 -40.793,47.98 -67.189,0 -81.35,0 l 34.496,58.684 -0.011,0.02 0.023,0 12.334,0 0.023,0 -0.011,-0.02 L 0,0 Z"
         style="fill:#0098c4;fill-opacity:1;fill-rule:nonzero;stroke:none"
         id="path4998"
         inkscape:connector-curvature="0" /></g><path
       d="m 186.287,50.291 14.16,0 0,58.704 -14.16,0 0,-58.704 z"
       style="fill:#0098c4;fill-opacity:1;fill-rule:nonzero;stroke:none"
       id="path5000"
       inkscape:connector-curvature="0" /><g
       id="g5002"
       transform="translate(4.2656,50.2915)"><path
         d="m 0,0 14.298,0 0,24.747 44.268,0 0,-24.747 14.161,0 0,58.704 -14.161,0 0,-22.272 -44.268,0 0,22.272 L 0,58.704 0,0 Z"
         style="fill:#000000;fill-opacity:1;fill-rule:nonzero;stroke:none"
         id="path5004"
         inkscape:connector-curvature="0" /></g><g
       id="g5006"
       transform="translate(221.0957,50.2915)"><path
         d="m 0,0 59.941,0 0,10.999 -45.643,0 0,47.705 L 0,58.704 0,0 Z"
         style="fill:#000000;fill-opacity:1;fill-rule:nonzero;stroke:none"
         id="path5008"
         inkscape:connector-curvature="0" /></g><g
       id="g5010"><g
         id="g5012"
         clip-path="url(#clipPath5014)"><g
           id="g5018"
           transform="translate(368.06,64.1768)"><path
             d="m 0,0 0,30.933 c 0,11.274 -3.712,13.886 -15.123,13.886 l -44.956,0 c -11.411,0 -15.123,-2.612 -15.123,-13.886 l 0,-30.933 c 0,-11.136 3.575,-13.885 15.123,-13.885 l 44.956,0 C -3.712,-13.885 0,-11.136 0,0 m -14.16,-2.612 -46.881,0 0,36.569 46.881,0 0,-36.569 z"
             style="fill:#000000;fill-opacity:1;fill-rule:nonzero;stroke:none"
             id="path5020"
             inkscape:connector-curvature="0" /></g><g
           id="g5022"
           transform="translate(15.4511,10.2974)"><path
             d="m 0,0 0.106,-1.816 c -1.637,-0.106 -4.272,-0.16 -7.903,-0.16 -1.086,0 -1.945,0.289 -2.577,0.868 -0.632,0.578 -0.957,1.357 -0.975,2.337 l 0,12.068 c 0.018,0.979 0.343,1.758 0.975,2.337 0.632,0.578 1.491,0.867 2.577,0.867 3.631,0 6.266,-0.053 7.903,-0.16 L 0,14.499 l -7.396,0 c -1.069,0 -1.603,-0.587 -1.603,-1.762 l 0,-4.006 7.957,0 0,-1.896 -7.957,0 0,-5.046 C -8.999,0.596 -8.465,0 -7.396,0 L 0,0 Z"
             style="fill:#000000;fill-opacity:1;fill-rule:nonzero;stroke:none"
             id="path5024"
             inkscape:connector-curvature="0" /></g><g
           id="g5026"
           transform="translate(23.7817,21.3521)"><path
             d="m 0,0 0.134,-2.056 c 1.833,1.584 3.604,2.376 5.313,2.376 1.816,0 2.911,-0.765 3.284,-2.296 1.763,1.531 3.507,2.296 5.234,2.296 1.121,0 1.98,-0.303 2.577,-0.907 0.596,-0.606 0.895,-1.496 0.895,-2.671 l 0,-9.746 -2.244,0 0,9.106 c -0.018,0.8 -0.182,1.383 -0.494,1.748 -0.311,0.365 -0.823,0.547 -1.535,0.547 -0.623,0 -1.224,-0.142 -1.802,-0.426 -0.579,-0.285 -1.402,-0.82 -2.47,-1.603 l 0,-9.372 -2.19,0 0,9.106 c 0,0.818 -0.164,1.405 -0.494,1.762 C 5.879,-1.78 5.367,-1.603 4.673,-1.603 4.05,-1.603 3.449,-1.745 2.871,-2.029 2.292,-2.314 1.469,-2.84 0.401,-3.605 l 0,-9.399 -2.27,0 L -1.869,0 0,0 Z"
             style="fill:#000000;fill-opacity:1;fill-rule:nonzero;stroke:none"
             id="path5028"
             inkscape:connector-curvature="0" /></g><g
           id="g5030"
           transform="translate(50.1899,17.6938)"><path
             d="m 0,0 0,-6.889 c 1.815,-0.534 3.204,-0.801 4.166,-0.801 1.174,0 1.993,0.329 2.456,0.988 0.462,0.658 0.694,1.922 0.694,3.791 0,1.816 -0.218,3.089 -0.654,3.819 C 6.226,1.637 5.482,2.002 4.432,2.002 3.755,2.002 3.084,1.847 2.417,1.535 1.749,1.224 0.943,0.711 0,0 m -0.401,3.658 0.187,-2.083 c 0.694,0.748 1.531,1.335 2.51,1.762 0.979,0.428 1.94,0.642 2.884,0.642 1.549,0 2.679,-0.57 3.391,-1.709 0.712,-1.14 1.068,-2.867 1.068,-5.181 0,-2.456 -0.391,-4.196 -1.175,-5.22 -0.783,-1.024 -2.029,-1.535 -3.738,-1.535 -1.709,0 -3.311,0.445 -4.806,1.335 C -0.027,-8.937 0,-9.809 0,-10.948 l 0,-3.765 -2.27,0 0,18.371 1.869,0 z"
             style="fill:#000000;fill-opacity:1;fill-rule:nonzero;stroke:none"
             id="path5032"
             inkscape:connector-curvature="0" /></g><g
           id="g5034"
           transform="translate(74.581,18.7085)"><path
             d="m 0,0 c -0.543,0.694 -1.526,1.041 -2.95,1.041 -1.425,0 -2.404,-0.347 -2.938,-1.041 -0.534,-0.694 -0.8,-1.985 -0.8,-3.872 0,-1.887 0.266,-3.177 0.8,-3.872 0.534,-0.694 1.513,-1.041 2.938,-1.041 1.424,0 2.407,0.347 2.95,1.041 0.543,0.695 0.814,1.985 0.814,3.872 C 0.814,-1.985 0.543,-0.694 0,0 m -2.95,2.964 c 2.242,0 3.822,-0.517 4.739,-1.549 0.917,-1.033 1.375,-2.795 1.375,-5.287 0,-2.492 -0.458,-4.254 -1.375,-5.287 -0.917,-1.032 -2.497,-1.549 -4.739,-1.549 -2.226,0 -3.801,0.517 -4.727,1.549 -0.926,1.033 -1.388,2.795 -1.388,5.287 0,2.492 0.462,4.254 1.388,5.287 0.926,1.032 2.501,1.549 4.727,1.549"
             style="fill:#000000;fill-opacity:1;fill-rule:nonzero;stroke:none"
             id="path5036"
             inkscape:connector-curvature="0" /></g><g
           id="g5038"
           transform="translate(103.165,21.3521)"><path
             d="m 0,0 -3.792,-12.363 c -0.106,-0.428 -0.4,-0.641 -0.881,-0.641 l -2.056,0 c -0.213,0 -0.405,0.067 -0.574,0.2 -0.169,0.134 -0.271,0.307 -0.307,0.521 l -2.136,8.838 c -0.053,0.249 -0.125,0.601 -0.213,1.055 -0.09,0.454 -0.161,0.787 -0.214,1.001 l -0.321,0 -0.454,-2.056 -2.109,-8.838 c -0.125,-0.481 -0.427,-0.721 -0.908,-0.721 l -2.029,0 c -0.481,0 -0.775,0.213 -0.881,0.641 L -20.667,0 l 2.35,0 2.697,-9.586 c 0.16,-0.552 0.302,-1.202 0.427,-1.949 l 0.347,0 0.481,1.949 2.162,8.865 c 0.089,0.48 0.374,0.721 0.855,0.721 l 2.056,0 c 0.445,0 0.729,-0.25 0.854,-0.748 l 2.137,-8.838 c 0.035,-0.196 0.106,-0.512 0.213,-0.948 0.107,-0.436 0.187,-0.77 0.24,-1.001 l 0.348,0 c 0.017,0.089 0.075,0.369 0.173,0.841 0.098,0.471 0.191,0.841 0.281,1.108 L -2.35,0 0,0 Z"
             style="fill:#000000;fill-opacity:1;fill-rule:nonzero;stroke:none"
             id="path5040"
             inkscape:connector-curvature="0" /></g><g
           id="g5042"
           transform="translate(110.2675,15.5044)"><path
             d="M 0,0 5.5,0 C 6.444,0 6.916,0.641 6.916,1.922 6.898,2.759 6.649,3.355 6.168,3.711 5.687,4.067 4.869,4.245 3.711,4.245 2.34,4.245 1.389,3.947 0.854,3.351 0.32,2.754 0.036,1.637 0,0 m 6.088,-1.763 -6.061,0 c 0.124,-1.495 0.489,-2.501 1.095,-3.017 0.605,-0.516 1.61,-0.774 3.017,-0.774 1.477,0 2.981,0.107 4.512,0.32 l 0.241,-1.522 c -1.158,-0.48 -2.84,-0.721 -5.047,-0.721 -2.243,0 -3.841,0.521 -4.793,1.562 -0.952,1.042 -1.428,2.808 -1.428,5.301 0,2.51 0.462,4.267 1.388,5.273 0.926,1.006 2.457,1.509 4.592,1.509 C 5.545,6.168 6.96,5.816 7.85,5.113 8.74,4.41 9.186,3.346 9.186,1.922 9.221,-0.534 8.188,-1.763 6.088,-1.763"
             style="fill:#000000;fill-opacity:1;fill-rule:nonzero;stroke:none"
             id="path5044"
             inkscape:connector-curvature="0" /></g><g
           id="g5046"
           transform="translate(133.9511,21.6724)"><path
             d="m 0,0 -0.267,-2.136 -0.748,0 c -0.658,0 -1.339,-0.13 -2.042,-0.387 -0.704,-0.259 -1.642,-0.681 -2.817,-1.269 l 0,-9.532 -2.27,0 0,13.004 1.763,0 0.24,-2.056 C -4.13,-0.792 -2.279,0 -0.587,0 L 0,0 Z"
             style="fill:#000000;fill-opacity:1;fill-rule:nonzero;stroke:none"
             id="path5048"
             inkscape:connector-curvature="0" /></g><path
           d="m 141.801,8.348 -2.243,0 0,13.004 2.243,0 0,-13.004 z m -1.656,18.531 1.069,0 c 0.462,0 0.694,-0.232 0.694,-0.694 l 0,-1.522 c 0,-0.463 -0.232,-0.694 -0.694,-0.694 l -1.069,0 c -0.462,0 -0.694,0.231 -0.694,0.694 l 0,1.522 c 0,0.462 0.232,0.694 0.694,0.694"
           style="fill:#000000;fill-opacity:1;fill-rule:nonzero;stroke:none"
           id="path5050"
           inkscape:connector-curvature="0" /><g
           id="g5052"
           transform="translate(150.6127,21.3521)"><path
             d="m 0,0 0.16,-2.056 c 2.1,1.584 4.041,2.376 5.821,2.376 2.35,0 3.525,-1.193 3.525,-3.578 l 0,-9.746 -2.27,0 0,9.106 c 0,0.854 -0.143,1.45 -0.427,1.788 -0.285,0.339 -0.766,0.507 -1.442,0.507 -0.712,0 -1.429,-0.16 -2.15,-0.48 -0.72,-0.32 -1.677,-0.846 -2.87,-1.575 l 0,-9.346 -2.27,0 L -1.923,0 0,0 Z"
             style="fill:#000000;fill-opacity:1;fill-rule:nonzero;stroke:none"
             id="path5054"
             inkscape:connector-curvature="0" /></g><g
           id="g5056"
           transform="translate(169.25,15.6777)"><path
             d="m 0,0 c 0.516,-0.365 1.415,-0.547 2.697,-0.547 1.282,0 2.18,0.182 2.697,0.547 0.516,0.365 0.774,0.983 0.774,1.856 0,0.872 -0.254,1.491 -0.761,1.855 C 4.899,4.076 3.996,4.259 2.697,4.259 1.415,4.259 0.516,4.076 0,3.711 -0.517,3.347 -0.774,2.728 -0.774,1.856 -0.774,0.983 -0.517,0.365 0,0 M 4.593,-6.715 0.16,-6.101 c -0.908,-0.694 -1.362,-1.523 -1.362,-2.483 0,-0.908 0.267,-1.504 0.801,-1.79 0.534,-0.284 1.611,-0.427 3.231,-0.427 1.585,0 2.648,0.147 3.191,0.441 0.543,0.294 0.814,0.885 0.814,1.776 0,0.64 -0.138,1.077 -0.413,1.308 -0.276,0.231 -0.886,0.418 -1.829,0.561 M 9.666,4.419 7.743,4.259 C 8.099,3.671 8.277,2.871 8.277,1.856 8.277,0.396 7.859,-0.659 7.022,-1.309 6.186,-1.958 4.744,-2.283 2.697,-2.283 1.7,-2.283 0.801,-2.194 0,-2.016 c -0.338,-0.41 -0.437,-0.859 -0.294,-1.348 0.143,-0.49 0.543,-0.788 1.202,-0.895 l 4.86,-0.774 c 1.21,-0.178 2.06,-0.557 2.549,-1.135 0.49,-0.579 0.735,-1.419 0.735,-2.523 0,-1.513 -0.45,-2.564 -1.349,-3.151 -0.899,-0.588 -2.514,-0.881 -4.846,-0.881 -2.35,0 -3.983,0.289 -4.9,0.868 -0.917,0.578 -1.375,1.606 -1.375,3.084 0,0.765 0.16,1.379 0.48,1.842 0.321,0.463 0.864,0.899 1.629,1.308 -0.658,0.517 -0.961,1.202 -0.907,2.057 0.053,0.854 0.391,1.522 1.014,2.002 -1.104,0.587 -1.655,1.718 -1.655,3.391 0,1.495 0.414,2.564 1.241,3.204 0.828,0.641 2.274,0.962 4.34,0.962 1.228,0 2.233,-0.107 3.017,-0.321 l 4.058,0 -0.133,-1.255 z"
             style="fill:#000000;fill-opacity:1;fill-rule:nonzero;stroke:none"
             id="path5058"
             inkscape:connector-curvature="0" /></g><path
           d="m 201.456,8.348 -2.35,0 0,18.424 2.35,0 0,-18.424 z"
           style="fill:#000000;fill-opacity:1;fill-rule:nonzero;stroke:none"
           id="path5060"
           inkscape:connector-curvature="0" /><g
           id="g5062"
           transform="translate(210.4013,21.3521)"><path
             d="m 0,0 0.16,-2.056 c 2.1,1.584 4.041,2.376 5.821,2.376 2.35,0 3.525,-1.193 3.525,-3.578 l 0,-9.746 -2.27,0 0,9.106 c 0,0.854 -0.143,1.45 -0.427,1.788 -0.285,0.339 -0.766,0.507 -1.442,0.507 -0.712,0 -1.429,-0.16 -2.15,-0.48 -0.72,-0.32 -1.677,-0.846 -2.87,-1.575 l 0,-9.346 -2.27,0 L -1.923,0 0,0 Z"
             style="fill:#000000;fill-opacity:1;fill-rule:nonzero;stroke:none"
             id="path5064"
             inkscape:connector-curvature="0" /></g><g
           id="g5066"
           transform="translate(230.08,19.563)"><path
             d="M 0,0 0,-7.637 C 0,-8.26 0.133,-8.705 0.4,-8.972 0.667,-9.239 1.122,-9.373 1.762,-9.373 l 1.976,0 0.267,-1.735 c -0.819,-0.231 -1.798,-0.347 -2.937,-0.347 -1.086,0 -1.914,0.302 -2.483,0.908 -0.57,0.605 -0.855,1.477 -0.855,2.616 l 0,7.931 -2.35,0 0,1.655 2.35,0.107 0,3.872 2.27,0 0,-3.845 4.139,0 L 4.139,0 0,0 Z"
             style="fill:#000000;fill-opacity:1;fill-rule:nonzero;stroke:none"
             id="path5068"
             inkscape:connector-curvature="0" /></g><g
           id="g5070"
           transform="translate(241.455,15.5044)"><path
             d="M 0,0 5.5,0 C 6.444,0 6.916,0.641 6.916,1.922 6.898,2.759 6.649,3.355 6.168,3.711 5.687,4.067 4.869,4.245 3.711,4.245 2.34,4.245 1.389,3.947 0.854,3.351 0.32,2.754 0.036,1.637 0,0 m 6.088,-1.763 -6.061,0 c 0.124,-1.495 0.489,-2.501 1.095,-3.017 0.605,-0.516 1.61,-0.774 3.017,-0.774 1.477,0 2.981,0.107 4.512,0.32 l 0.241,-1.522 c -1.158,-0.48 -2.84,-0.721 -5.047,-0.721 -2.243,0 -3.841,0.521 -4.793,1.562 -0.952,1.042 -1.428,2.808 -1.428,5.301 0,2.51 0.462,4.267 1.388,5.273 0.926,1.006 2.457,1.509 4.592,1.509 C 5.545,6.168 6.96,5.816 7.85,5.113 8.74,4.41 9.186,3.346 9.186,1.922 9.221,-0.534 8.188,-1.763 6.088,-1.763"
             style="fill:#000000;fill-opacity:1;fill-rule:nonzero;stroke:none"
             id="path5072"
             inkscape:connector-curvature="0" /></g><g
           id="g5074"
           transform="translate(259.0776,27.0391)"><path
             d="m 0,0 0,-15.113 c -0.018,-0.57 0.125,-1.001 0.427,-1.295 0.303,-0.294 0.748,-0.441 1.336,-0.441 l 1.255,0 0.267,-1.735 c -0.481,-0.231 -1.273,-0.347 -2.377,-0.347 -0.979,0 -1.754,0.289 -2.323,0.868 -0.57,0.578 -0.855,1.392 -0.855,2.443 L -2.27,0 0,0 Z"
             style="fill:#000000;fill-opacity:1;fill-rule:nonzero;stroke:none"
             id="path5076"
             inkscape:connector-curvature="0" /></g><g
           id="g5078"
           transform="translate(269.7314,27.0391)"><path
             d="m 0,0 0,-15.113 c -0.018,-0.57 0.125,-1.001 0.427,-1.295 0.303,-0.294 0.748,-0.441 1.336,-0.441 l 1.255,0 0.267,-1.735 c -0.481,-0.231 -1.273,-0.347 -2.377,-0.347 -0.979,0 -1.754,0.289 -2.323,0.868 -0.57,0.578 -0.855,1.392 -0.855,2.443 L -2.27,0 0,0 Z"
             style="fill:#000000;fill-opacity:1;fill-rule:nonzero;stroke:none"
             id="path5080"
             inkscape:connector-curvature="0" /></g><path
           d="m 280.546,8.348 -2.243,0 0,13.004 2.243,0 0,-13.004 z m -1.656,18.531 1.068,0 c 0.463,0 0.694,-0.232 0.694,-0.694 l 0,-1.522 c 0,-0.463 -0.231,-0.694 -0.694,-0.694 l -1.068,0 c -0.463,0 -0.694,0.231 -0.694,0.694 l 0,1.522 c 0,0.462 0.231,0.694 0.694,0.694"
           style="fill:#000000;fill-opacity:1;fill-rule:nonzero;stroke:none"
           id="path5082"
           inkscape:connector-curvature="0" /><g
           id="g5084"
           transform="translate(289.8642,15.6777)"><path
             d="m 0,0 c 0.516,-0.365 1.415,-0.547 2.697,-0.547 1.282,0 2.18,0.182 2.697,0.547 0.516,0.365 0.774,0.983 0.774,1.856 0,0.872 -0.254,1.491 -0.761,1.855 C 4.899,4.076 3.996,4.259 2.697,4.259 1.415,4.259 0.516,4.076 0,3.711 -0.517,3.347 -0.774,2.728 -0.774,1.856 -0.774,0.983 -0.517,0.365 0,0 M 4.593,-6.715 0.16,-6.101 c -0.908,-0.694 -1.362,-1.523 -1.362,-2.483 0,-0.908 0.267,-1.504 0.801,-1.79 0.534,-0.284 1.611,-0.427 3.231,-0.427 1.585,0 2.648,0.147 3.191,0.441 0.543,0.294 0.814,0.885 0.814,1.776 0,0.64 -0.138,1.077 -0.413,1.308 -0.276,0.231 -0.886,0.418 -1.829,0.561 M 9.666,4.419 7.743,4.259 C 8.099,3.671 8.277,2.871 8.277,1.856 8.277,0.396 7.859,-0.659 7.022,-1.309 6.186,-1.958 4.744,-2.283 2.697,-2.283 1.7,-2.283 0.801,-2.194 0,-2.016 c -0.338,-0.41 -0.437,-0.859 -0.294,-1.348 0.143,-0.49 0.543,-0.788 1.202,-0.895 l 4.86,-0.774 c 1.21,-0.178 2.06,-0.557 2.549,-1.135 0.49,-0.579 0.735,-1.419 0.735,-2.523 0,-1.513 -0.45,-2.564 -1.349,-3.151 -0.899,-0.588 -2.514,-0.881 -4.846,-0.881 -2.35,0 -3.983,0.289 -4.9,0.868 -0.917,0.578 -1.375,1.606 -1.375,3.084 0,0.765 0.16,1.379 0.48,1.842 0.321,0.463 0.864,0.899 1.629,1.308 -0.658,0.517 -0.961,1.202 -0.907,2.057 0.053,0.854 0.391,1.522 1.014,2.002 -1.104,0.587 -1.655,1.718 -1.655,3.391 0,1.495 0.414,2.564 1.241,3.204 0.828,0.641 2.274,0.962 4.34,0.962 1.228,0 2.233,-0.107 3.017,-0.321 l 4.058,0 -0.133,-1.255 z"
             style="fill:#000000;fill-opacity:1;fill-rule:nonzero;stroke:none"
             id="path5086"
             inkscape:connector-curvature="0" /></g><g
           id="g5088"
           transform="translate(306.7929,15.5044)"><path
             d="M 0,0 5.5,0 C 6.444,0 6.916,0.641 6.916,1.922 6.898,2.759 6.649,3.355 6.168,3.711 5.687,4.067 4.869,4.245 3.711,4.245 2.34,4.245 1.389,3.947 0.854,3.351 0.32,2.754 0.036,1.637 0,0 m 6.088,-1.763 -6.061,0 c 0.124,-1.495 0.489,-2.501 1.095,-3.017 0.605,-0.516 1.61,-0.774 3.017,-0.774 1.477,0 2.981,0.107 4.512,0.32 l 0.241,-1.522 c -1.158,-0.48 -2.84,-0.721 -5.047,-0.721 -2.243,0 -3.841,0.521 -4.793,1.562 -0.952,1.042 -1.428,2.808 -1.428,5.301 0,2.51 0.462,4.267 1.388,5.273 0.926,1.006 2.457,1.509 4.592,1.509 C 5.545,6.168 6.96,5.816 7.85,5.113 8.74,4.41 9.186,3.346 9.186,1.922 9.221,-0.534 8.188,-1.763 6.088,-1.763"
             style="fill:#000000;fill-opacity:1;fill-rule:nonzero;stroke:none"
             id="path5090"
             inkscape:connector-curvature="0" /></g><g
           id="g5092"
           transform="translate(323.935,21.3521)"><path
             d="m 0,0 0.16,-2.056 c 2.1,1.584 4.041,2.376 5.821,2.376 2.35,0 3.525,-1.193 3.525,-3.578 l 0,-9.746 -2.27,0 0,9.106 c 0,0.854 -0.143,1.45 -0.427,1.788 -0.285,0.339 -0.766,0.507 -1.442,0.507 -0.712,0 -1.429,-0.16 -2.15,-0.48 -0.72,-0.32 -1.677,-0.846 -2.87,-1.575 l 0,-9.346 -2.27,0 L -1.923,0 0,0 Z"
             style="fill:#000000;fill-opacity:1;fill-rule:nonzero;stroke:none"
             id="path5094"
             inkscape:connector-curvature="0" /></g><g
           id="g5096"
           transform="translate(349.7817,10.2173)"><path
             d="m 0,0 0.241,-1.522 c -1.282,-0.445 -2.769,-0.667 -4.46,-0.667 -2.242,0 -3.831,0.511 -4.766,1.535 -0.934,1.023 -1.402,2.79 -1.402,5.3 0,2.51 0.468,4.272 1.402,5.287 0.935,1.015 2.532,1.522 4.793,1.522 1.709,0 3.106,-0.205 4.192,-0.614 L -0.293,9.372 c -1.175,0.107 -2.35,0.16 -3.525,0.16 -1.567,0 -2.653,-0.346 -3.258,-1.041 -0.605,-0.694 -0.907,-1.976 -0.907,-3.845 0,-1.887 0.302,-3.177 0.907,-3.872 0.605,-0.694 1.691,-1.041 3.258,-1.041 1.424,0 2.697,0.089 3.818,0.267"
             style="fill:#000000;fill-opacity:1;fill-rule:nonzero;stroke:none"
             id="path5098"
             inkscape:connector-curvature="0" /></g><g
           id="g5100"
           transform="translate(357.125,15.5044)"><path
             d="M 0,0 5.5,0 C 6.444,0 6.916,0.641 6.916,1.922 6.898,2.759 6.649,3.355 6.168,3.711 5.687,4.067 4.869,4.245 3.711,4.245 2.34,4.245 1.389,3.947 0.854,3.351 0.32,2.754 0.036,1.637 0,0 m 6.088,-1.763 -6.061,0 c 0.124,-1.495 0.489,-2.501 1.095,-3.017 0.605,-0.516 1.61,-0.774 3.017,-0.774 1.477,0 2.981,0.107 4.512,0.32 l 0.241,-1.522 c -1.158,-0.48 -2.84,-0.721 -5.047,-0.721 -2.243,0 -3.841,0.521 -4.793,1.562 -0.952,1.042 -1.428,2.808 -1.428,5.301 0,2.51 0.462,4.267 1.388,5.273 0.926,1.006 2.457,1.509 4.592,1.509 C 5.545,6.168 6.96,5.816 7.85,5.113 8.74,4.41 9.186,3.346 9.186,1.922 9.221,-0.534 8.188,-1.763 6.088,-1.763"
             style="fill:#000000;fill-opacity:1;fill-rule:nonzero;stroke:none"
             id="path5102"
             inkscape:connector-curvature="0" /></g></g></g></g></svg>