<?xml version="1.0" encoding="UTF-8" standalone="no"?>
<!DOCTYPE svg PUBLIC "-//W3C//DTD SVG 1.1//EN" "http://www.w3.org/Graphics/SVG/1.1/DTD/svg11.dtd">
<!-- Generated by Microsoft Visio, SVG Export mo_flow.svg Page-1 -->
<svg xmlns="http://www.w3.org/2000/svg" xmlns:xlink="http://www.w3.org/1999/xlink" xmlns:ev="http://www.w3.org/2001/xml-events"
		width="5.81843in" height="6.79921in" viewBox="0 0 418.927 489.543" xml:space="preserve" color-interpolation-filters="sRGB"
		class="st14">
	<style type="text/css">
	<![CDATA[
		.st1 {fill:#acb0b6;stroke:#a5a5a5;stroke-linecap:round;stroke-linejoin:round;stroke-width:0.75}
		.st2 {fill:#000000;font-family:Arial;font-size:0.666664em}
		.st3 {fill:#161e6e;stroke:none;stroke-linecap:round;stroke-linejoin:round;stroke-width:1.5}
		.st4 {fill:#ffffff;font-family:Arial;font-size:0.666664em}
		.st5 {fill:#49165e;stroke:#000000;stroke-linecap:round;stroke-linejoin:round;stroke-width:0.75}
		.st6 {fill:#0098c4;stroke:none;stroke-linecap:round;stroke-linejoin:round;stroke-width:0.75}
		.st7 {font-size:1em}
		.st8 {fill:#d4d6d9;stroke:none;stroke-width:0.25}
		.st9 {fill:#7f7f7f;font-family:Arial;font-size:1.00001em;font-weight:bold}
		.st10 {marker-end:url(#mrkr4-31);stroke:#000000;stroke-linecap:round;stroke-linejoin:round;stroke-width:1}
		.st11 {fill:#000000;fill-opacity:1;stroke:#000000;stroke-opacity:1;stroke-width:0.28409090909091}
		.st12 {fill:#ffffff;stroke:none;stroke-linecap:butt;stroke-width:7.2}
		.st13 {fill:#7f7f7f;font-family:Arial;font-size:0.666664em;font-weight:bold}
		.st14 {fill:none;fill-rule:evenodd;font-size:12px;overflow:visible;stroke-linecap:square;stroke-miterlimit:3}
	]]>
	</style>

	<defs id="Markers">
		<g id="lend4">
			<path d="M 2 1 L 0 0 L 2 -1 L 2 1 " style="stroke:none"/>
		</g>
		<marker id="mrkr4-31" class="st11" refX="-7.04" orient="auto" markerUnits="strokeWidth" overflow="visible">
			<use xlink:href="#lend4" transform="scale(-3.52,-3.52) "/>
		</marker>
	</defs>
	<g>
		<title>Page-1</title>
		<g id="shape1-1" transform="translate(202.502,-443.197)">
			<title>Rectangle</title>
			<desc>Start (floating-point model)</desc>
			<rect x="0" y="461.197" width="113.386" height="28.3465" class="st1"/>
			<text x="9.56" y="477.77" class="st2">Start (floating-point model)</text>		</g>
		<g id="shape2-4" transform="translate(202.502,-301.465)">
			<title>Diamond</title>
			<desc>4-bit weights?</desc>
			<path d="M56.69 489.54 L113.39 461.2 L56.69 432.85 L0 461.2 L56.69 489.54 Z" class="st3"/>
			<text x="32.01" y="463.6" class="st4">4-bit weights?</text>		</g>
		<g id="shape3-7" transform="translate(202.502,-18)">
			<title>Rectangle.3</title>
			<desc>Compile &#38; run on Hailo-8</desc>
			<rect x="0" y="461.197" width="113.386" height="28.3465" class="st5"/>
			<text x="12.01" y="477.77" class="st4">Compile &#38; run on Hailo-8</text>		</g>
		<g id="shape4-10" transform="translate(202.502,-386.504)">
			<title>Rectangle.6</title>
			<desc>Validate accuracy in full precision</desc>
			<rect x="0" y="461.197" width="113.386" height="28.3465" class="st6"/>
			<text x="14.67" y="472.97" class="st4">Validate accuracy in full <tspan x="40.69" dy="1.2em" class="st7">precision</tspan></text>		</g>
		<g id="shape5-14" transform="translate(46.5965,-117.213)">
			<title>Rectangle.17</title>
			<desc>Apply model optimization (with Fine Tune, GPU required)</desc>
			<rect x="0" y="461.197" width="113.386" height="28.3465" class="st6"/>
			<text x="12.23" y="468.17" class="st4">Apply model optimization <tspan x="28.02" dy="1.2em" class="st7">(with Fine Tune,</tspan><tspan
						x="30.91" dy="1.2em" class="st7">GPU required)</tspan></text>		</g>
		<g id="shape6-19" transform="translate(174.156,-244.772)">
			<title>Circle.22</title>
			<desc>2</desc>
			<path d="M0 475.37 A14.1732 14.1732 0 1 1 28.35 475.37 A14.1732 14.1732 0 0 1 -0 475.37 Z" class="st8"/>
			<text x="10.84" y="478.97" class="st9">2</text>		</g>
		<g id="shape7-22" transform="translate(202.502,-103.039)">
			<title>Diamond.1008</title>
			<desc>Is quantized accuracy acceptable?</desc>
			<path d="M56.69 489.54 L113.39 461.2 L56.69 432.85 L0 461.2 L56.69 489.54 Z" class="st3"/>
			<text x="35.12" y="458.8" class="st4">Is quantized<tspan x="18" dy="1.2em" class="st7">accuracy acceptable?</tspan></text>		</g>
		<g id="shape8-26" transform="translate(252.108,-103.039)">
			<title>Dynamic connector.1011</title>
			<desc>Yes</desc>
			<path d="M7.09 489.54 L7.09 539.2" class="st10"/>
			<rect x="-0.030543" y="515.096" width="14.2342" height="9.59985" class="st12"/>
			<text x="-0.03" y="522.3" class="st13">Yes</text>		</g>
		<g id="shape9-34" transform="translate(202.502,-329.811)">
			<title>Dynamic connector.1022</title>
			<desc>Yes</desc>
			<path d="M0 489.54 L-99.21 489.54 L-99.21 666.76" class="st10"/>
			<rect x="-109.164" y="534.439" width="14.2342" height="9.59985" class="st12"/>
			<text x="-109.16" y="541.64" class="st13">Yes</text>		</g>
		<g id="shape10-41" transform="translate(18.25,-117.213)">
			<title>Circle.1025</title>
			<desc>3</desc>
			<path d="M0 475.37 A14.1732 14.1732 0 1 1 28.35 475.37 A14.1732 14.1732 0 0 1 -0 475.37 Z" class="st8"/>
			<text x="10.84" y="478.97" class="st9">3</text>		</g>
		<g id="shape11-44" transform="translate(252.108,-188.079)">
			<title>Dynamic connector.1026</title>
			<path d="M7.09 489.54 L7.09 510.85" class="st10"/>
		</g>
		<g id="shape12-49" transform="translate(202.502,-124.299)">
			<title>Dynamic connector.1027</title>
			<desc>No</desc>
			<path d="M0 482.46 L-35.48 482.46" class="st10"/>
			<rect x="-26.592" y="477.657" width="10.6642" height="9.59985" class="st12"/>
			<text x="-26.59" y="484.86" class="st13">No</text>		</g>
		<g id="shape13-56" transform="translate(252.108,-386.504)">
			<title>Dynamic connector.1032</title>
			<path d="M7.09 489.54 L7.09 510.85" class="st10"/>
		</g>
		<g id="shape14-61" transform="translate(202.502,-188.079)">
			<title>Rectangle.1033</title>
			<desc>Validate accuracy on the quantized model</desc>
			<rect x="0" y="461.197" width="113.386" height="28.3465" class="st6"/>
			<text x="12.89" y="472.97" class="st4">Validate accuracy on the <tspan x="27.34" dy="1.2em" class="st7">quantized model</tspan></text>		</g>
		<g id="shape15-65" transform="translate(252.108,-443.197)">
			<title>Dynamic connector.1034</title>
			<path d="M7.09 489.54 L7.09 510.85" class="st10"/>
		</g>
		<g id="shape16-70" transform="translate(252.108,-301.465)">
			<title>Dynamic connector.1035</title>
			<desc>No</desc>
			<path d="M7.09 489.54 L7.09 510.85" class="st10"/>
			<rect x="1.75446" y="498.917" width="10.6642" height="9.59985" class="st12"/>
			<text x="1.75" y="506.12" class="st13">No</text>		</g>
		<g id="shape17-77" transform="translate(347.069,-253.276)">
			<title>Dynamic connector.1037</title>
			<path d="M0 482.46 L-22.72 482.46" class="st10"/>
		</g>
		<g id="shape18-82" transform="translate(55.1287,-175.323)">
			<title>Dynamic connector.1040</title>
			<path d="M7.06 489.54 L7.1 512.27" class="st10"/>
		</g>
		<g id="shape19-87" transform="translate(35.2579,-175.323)">
			<title>Circle.1041</title>
			<desc>&#62;1000 images</desc>
			<path d="M0 462.61 A26.9291 26.9291 0 0 1 53.86 462.61 A26.9291 26.9291 0 1 1 0 462.61 Z" class="st1"/>
			<text x="15.69" y="460.21" class="st2">&#62;1000 <tspan x="14.03" dy="1.2em" class="st7">images</tspan></text>		</g>
		<g id="shape20-91" transform="translate(347.069,-233.433)">
			<title>Circle.1042</title>
			<desc>&#62;128 images</desc>
			<path d="M0 462.61 A26.9291 26.9291 0 0 1 53.86 462.61 A26.9291 26.9291 0 1 1 0 462.61 Z" class="st1"/>
			<text x="17.92" y="460.21" class="st2">&#62;128 <tspan x="14.03" dy="1.2em" class="st7">images</tspan></text>		</g>
		<g id="shape21-95" transform="translate(172.873,-386.504)">
			<title>Circle.1043</title>
			<desc>1</desc>
			<path d="M0 475.37 A14.1732 14.1732 0 1 1 28.35 475.37 A14.1732 14.1732 0 0 1 -0 475.37 Z" class="st8"/>
			<text x="10.84" y="478.97" class="st9">1</text>		</g>
		<g id="shape22-98" transform="translate(96.2028,-117.213)">
			<title>Dynamic connector.1044</title>
			<path d="M7.09 489.54 L7.09 510.85" class="st10"/>
		</g>
		<g id="shape27-103" transform="translate(202.502,-244.772)">
			<title>Rectangle.27</title>
			<desc>Apply model optimization (without Fine Tune)</desc>
			<rect x="0" y="461.197" width="113.386" height="28.3465" class="st6"/>
			<text x="12.23" y="472.97" class="st4">Apply model optimization <tspan x="22.23" dy="1.2em" class="st7">(without Fine Tune)</tspan></text>		</g>
		<g id="shape28-107" transform="translate(266.281,-244.772)">
			<title>Dynamic connector.28</title>
			<path d="M-7.09 489.54 L-7.09 510.85" class="st10"/>
		</g>
		<g id="shape29-112" transform="translate(46.5965,-60.5197)">
			<title>Rectangle.29</title>
			<desc>Validate accuracy on the quantized model</desc>
			<rect x="0" y="461.197" width="113.386" height="28.3465" class="st6"/>
			<text x="12.89" y="472.97" class="st4">Validate accuracy on the <tspan x="27.34" dy="1.2em" class="st7">quantized model</tspan></text>		</g>
		<g id="shape30-116" transform="translate(103.289,-60.5197)">
			<title>Dynamic connector.30</title>
			<path d="M0 489.54 L0 517.89 L92.17 517.89" class="st10"/>
		</g>
	</g>
</svg>
